<svg width="30" height="27" viewBox="0 0 30 27" fill="none" xmlns="http://www.w3.org/2000/svg">
<path d="M30 11.25V12.0833C30 12.7737 29.4404 13.3333 28.75 13.3333H28.3333L26.9733 22.8535C26.7973 24.0852 25.7426 25 24.4984 25H5.50156C4.25745 25 3.20266 24.0852 3.02667 22.8535L1.66667 13.3333H1.25C0.559635 13.3333 0 12.7737 0 12.0833V11.25C0 10.5596 0.559635 10 1.25 10H4.75734L10.3188 2.35307C10.8602 1.6087 11.9025 1.44406 12.647 1.98547C13.3914 2.52688 13.556 3.56922 13.0146 4.31365L8.87901 10H21.121L16.9854 4.31359C16.444 3.56922 16.6086 2.52682 17.3531 1.98542C18.0974 1.44401 19.1398 1.60859 19.6812 2.35302L25.2427 10H28.75C29.4404 10 30 10.5596 30 11.25ZM16.25 20.4167V14.5833C16.25 13.893 15.6904 13.3333 15 13.3333C14.3096 13.3333 13.75 13.893 13.75 14.5833V20.4167C13.75 21.107 14.3096 21.6667 15 21.6667C15.6904 21.6667 16.25 21.107 16.25 20.4167ZM22.0833 20.4167V14.5833C22.0833 13.893 21.5237 13.3333 20.8333 13.3333C20.143 13.3333 19.5833 13.893 19.5833 14.5833V20.4167C19.5833 21.107 20.143 21.6667 20.8333 21.6667C21.5237 21.6667 22.0833 21.107 22.0833 20.4167ZM10.4167 20.4167V14.5833C10.4167 13.893 9.85703 13.3333 9.16667 13.3333C8.4763 13.3333 7.91667 13.893 7.91667 14.5833V20.4167C7.91667 21.107 8.4763 21.6667 9.16667 21.6667C9.85703 21.6667 10.4167 21.107 10.4167 20.4167Z" fill="#F97200"/>
</svg>
